<?xml version="1.0" encoding="utf-8"?>
<!-- Generator: Adobe Illustrator 19.1.0, SVG Export Plug-In . SVG Version: 6.00 Build 0)  -->
<svg version="1.1" id="Layer_1" xmlns="http://www.w3.org/2000/svg" xmlns:xlink="http://www.w3.org/1999/xlink" x="0px" y="0px"
	 viewBox="0 0 2126 2834.7" style="enable-background:new 0 0 2126 2834.7;" xml:space="preserve">
<style type="text/css">
	.st0{fill:#575756;}
	.st1{fill:#23398B;}
	.st2{fill:#009E9B;}
</style>
<g id="Landoretti">
	<path class="st0" d="M447.7,2186.4v167h101.8v14.8H430.4v-181.7H447.7z"/>
	<path class="st0" d="M567.4,2257.1c2.7-5.6,6.4-10.2,11.1-13.8c4.7-3.6,10.1-6.2,16.4-7.9c6.3-1.7,13.2-2.5,20.9-2.5
		c5.8,0,11.5,0.5,17.3,1.7c5.8,1.1,10.9,3.2,15.5,6.2c4.6,3,8.3,7.3,11.2,12.9c2.9,5.5,4.3,12.7,4.3,21.5v69.7
		c0,6.4,3.1,9.7,9.4,9.7c1.9,0,3.6-0.3,5.1-1v13.5c-1.9,0.3-3.5,0.6-5,0.8c-1.4,0.2-3.3,0.3-5.5,0.3c-4.1,0-7.3-0.5-9.8-1.7
		c-2.5-1.1-4.4-2.7-5.7-4.7c-1.4-2-2.3-4.5-2.7-7.3c-0.4-2.8-0.6-5.9-0.6-9.3h-0.5c-2.9,4.2-5.8,8-8.8,11.3c-3,3.3-6.3,6.1-9.9,8.3
		c-3.7,2.2-7.8,3.9-12.5,5.1c-4.7,1.2-10.2,1.8-16.7,1.8c-6.1,0-11.8-0.7-17.2-2.2c-5.3-1.4-10-3.7-14-6.9c-4-3.1-7.1-7.1-9.4-12
		c-2.3-4.8-3.4-10.6-3.4-17.2c0-9.2,2-16.3,6.1-21.5c4.1-5.2,9.5-9.1,16.2-11.8c6.7-2.7,14.3-4.6,22.7-5.7
		c8.4-1.1,16.9-2.2,25.6-3.2c3.4-0.3,6.4-0.8,8.9-1.3c2.5-0.5,4.7-1.4,6.4-2.7c1.7-1.3,3-3,3.9-5.2c0.9-2.2,1.4-5.1,1.4-8.7
		c0-5.4-0.9-9.9-2.7-13.4c-1.8-3.5-4.2-6.2-7.4-8.3c-3.1-2-6.8-3.4-10.9-4.2c-4.2-0.8-8.6-1.1-13.4-1.1c-10.2,0-18.5,2.4-24.9,7.3
		c-6.5,4.8-9.8,12.6-10.2,23.3h-16C563,2269.4,564.7,2262.7,567.4,2257.1z M647.5,2296.3c-1,1.9-3,3.2-5.9,4.1
		c-2.9,0.9-5.4,1.4-7.6,1.8c-6.8,1.2-13.8,2.3-21,3.2c-7.2,0.9-13.8,2.3-19.7,4.2c-5.9,1.9-10.8,4.5-14.6,8
		c-3.8,3.5-5.7,8.4-5.7,14.9c0,4.1,0.8,7.7,2.4,10.8c1.6,3.1,3.8,5.9,6.5,8.1c2.7,2.3,5.9,4,9.4,5.2c3.6,1.2,7.2,1.8,10.9,1.8
		c6.1,0,12-0.9,17.6-2.8c5.6-1.9,10.5-4.6,14.6-8.2c4.2-3.6,7.5-7.9,9.9-13c2.5-5.1,3.7-10.9,3.7-17.3v-20.9H647.5z"/>
	<path class="st0" d="M712,2236.8v22.7h0.5c3.1-8,8.5-14.4,16.3-19.2c7.8-4.8,16.4-7.3,25.7-7.3c9.2,0,16.8,1.2,23,3.6
		c6.2,2.4,11.2,5.7,14.9,10.1c3.7,4.3,6.4,9.6,7.9,15.9c1.5,6.3,2.3,13.3,2.3,21.1v84.5h-16v-82c0-5.6-0.5-10.8-1.5-15.7
		c-1-4.8-2.8-9-5.3-12.6c-2.5-3.6-6-6.4-10.3-8.4c-4.3-2-9.7-3.1-16.2-3.1c-6.4,0-12.2,1.1-17.2,3.4c-5,2.3-9.3,5.4-12.7,9.4
		c-3.5,4-6.2,8.7-8.1,14.3c-2,5.5-3,11.5-3.2,17.9v76.6h-16v-131.3H712z"/>
	<path class="st0" d="M933.7,2368.1v-24.9h-0.5c-1.7,4.3-4.2,8.1-7.5,11.7c-3.3,3.6-7.1,6.6-11.3,9c-4.2,2.5-8.8,4.4-13.6,5.7
		c-4.8,1.4-9.6,2-14.4,2c-10,0-18.7-1.8-26.1-5.5c-7.4-3.6-13.5-8.7-18.5-15c-4.9-6.4-8.6-13.7-10.9-22.1
		c-2.4-8.4-3.6-17.3-3.6-26.6c0-9.3,1.2-18.2,3.6-26.6c2.4-8.4,6-15.8,10.9-22.1c4.9-6.4,11.1-11.4,18.5-15.2
		c7.4-3.7,16.1-5.6,26.1-5.6c4.9,0,9.7,0.6,14.4,1.8c4.7,1.2,9,3,13.1,5.5c4.1,2.5,7.7,5.5,10.8,9c3.1,3.6,5.6,7.7,7.3,12.5h0.5
		v-75.3h16v181.7H933.7z M845.7,2322.7c1.6,6.7,4.2,12.7,7.6,17.9c3.5,5.3,7.9,9.5,13.4,12.9c5.4,3.3,12,5,19.6,5
		c8.5,0,15.7-1.7,21.5-5c5.9-3.3,10.6-7.6,14.3-12.9c3.6-5.3,6.3-11.2,7.9-17.9c1.6-6.7,2.4-13.4,2.4-20.2s-0.8-13.5-2.4-20.2
		c-1.6-6.7-4.2-12.7-7.9-17.9c-3.7-5.3-8.4-9.5-14.3-12.9c-5.9-3.3-13-5-21.5-5c-7.6,0-14.2,1.6-19.6,5c-5.4,3.3-9.9,7.6-13.4,12.9
		c-3.5,5.3-6,11.2-7.6,17.9c-1.6,6.7-2.4,13.4-2.4,20.2S844.1,2316,845.7,2322.7z"/>
	<path class="st0" d="M1061.1,2238.6c7.7,3.7,14.2,8.7,19.5,15c5.3,6.3,9.2,13.6,12,22c2.7,8.4,4.1,17.4,4.1,26.9
		s-1.4,18.4-4.1,26.8c-2.7,8.4-6.7,15.7-12,22c-5.3,6.3-11.8,11.2-19.5,14.9c-7.7,3.6-16.6,5.5-26.6,5.5c-10,0-18.9-1.8-26.6-5.5
		c-7.7-3.6-14.2-8.6-19.5-14.9c-5.3-6.3-9.3-13.6-12-22c-2.7-8.4-4.1-17.3-4.1-26.8s1.4-18.5,4.1-26.9c2.7-8.4,6.7-15.7,12-22
		c5.3-6.3,11.7-11.3,19.5-15c7.7-3.7,16.6-5.6,26.6-5.6C1044.5,2233,1053.3,2234.8,1061.1,2238.6z M1014.3,2251.3
		c-5.8,3.2-10.6,7.5-14.4,12.7c-3.8,5.3-6.7,11.2-8.7,17.9c-2,6.7-2.9,13.5-2.9,20.5s1,13.8,2.9,20.5c2,6.7,4.8,12.7,8.7,18
		c3.8,5.3,8.6,9.5,14.4,12.7c5.8,3.2,12.5,4.8,20.1,4.8c7.6,0,14.3-1.6,20.1-4.8c5.8-3.2,10.6-7.5,14.4-12.7
		c3.8-5.3,6.7-11.2,8.7-18c1.9-6.7,2.9-13.5,2.9-20.5s-1-13.8-2.9-20.5c-2-6.7-4.8-12.7-8.7-17.9c-3.8-5.3-8.6-9.5-14.4-12.7
		c-5.8-3.2-12.5-4.8-20.1-4.8C1026.8,2246.4,1020.1,2248.1,1014.3,2251.3z"/>
	<path class="st0" d="M1135.3,2236.8v30.8h0.5c4.1-10.7,10.4-18.9,19-24.7c8.6-5.8,18.8-8.4,30.7-7.9v16c-7.3-0.3-13.9,0.6-19.9,2.9
		c-5.9,2.3-11.1,5.6-15.4,9.8c-4.3,4.2-7.7,9.3-10.1,15.1c-2.4,5.9-3.6,12.3-3.6,19.2v70h-16v-131.3H1135.3z"/>
	<path class="st0" d="M1207.9,2324.7c1.6,6.2,4.2,11.8,7.8,16.7c3.6,4.9,8.1,9,13.5,12.2c5.4,3.2,12,4.8,19.6,4.8
		c11.7,0,20.9-3.1,27.5-9.2c6.6-6.1,11.2-14.3,13.7-24.4h16c-3.4,14.9-9.6,26.5-18.7,34.6c-9.1,8.1-21.9,12.2-38.6,12.2
		c-10.4,0-19.3-1.8-26.9-5.5c-7.6-3.6-13.7-8.7-18.5-15c-4.8-6.4-8.3-13.7-10.6-22.1c-2.3-8.4-3.4-17.3-3.4-26.6
		c0-8.7,1.1-17.1,3.4-25.5c2.3-8.3,5.8-15.7,10.6-22.3c4.7-6.5,10.9-11.8,18.5-15.8c7.5-4,16.5-6,26.9-6c10.5,0,19.5,2.1,27,6.4
		c7.5,4.2,13.5,9.8,18.2,16.7c4.7,6.9,8,14.8,10.1,23.7s2.9,17.9,2.5,27.1h-101.1C1205.5,2312.5,1206.3,2318.5,1207.9,2324.7z
		 M1287.4,2275.7c-2-5.6-4.7-10.6-8.3-14.9c-3.6-4.3-7.9-7.8-13-10.4c-5.1-2.6-10.9-3.9-17.3-3.9c-6.6,0-12.5,1.3-17.6,3.9
		c-5.1,2.6-9.4,6.1-13,10.4c-3.6,4.3-6.4,9.3-8.5,15c-2.1,5.7-3.5,11.5-4.2,17.4h85C1290.4,2287.2,1289.3,2281.3,1287.4,2275.7z"/>
	<path class="st0" d="M1380.4,2236.8v13.5h-26.7v88.6c0,5.3,0.7,9.4,2.2,12.3c1.4,3,5,4.6,10.8,5c4.6,0,9.2-0.2,13.7-0.8v13.5
		c-2.4,0-4.8,0.1-7.1,0.3c-2.4,0.2-4.8,0.3-7.1,0.3c-10.7,0-18.2-2.1-22.4-6.2c-4.2-4.2-6.3-11.8-6.1-23v-89.9h-22.9v-13.5h22.9
		v-39.4h16v39.4H1380.4z"/>
	<path class="st0" d="M1455.7,2236.8v13.5H1429v88.6c0,5.3,0.7,9.4,2.2,12.3c1.4,3,5,4.6,10.8,5c4.6,0,9.2-0.2,13.8-0.8v13.5
		c-2.4,0-4.8,0.1-7.1,0.3c-2.4,0.2-4.8,0.3-7.1,0.3c-10.7,0-18.2-2.1-22.4-6.2c-4.2-4.2-6.3-11.8-6.1-23v-89.9h-22.9v-13.5h22.9
		v-39.4h16v39.4H1455.7z"/>
	<path class="st0" d="M1495.2,2186.4v25.7h-16v-25.7H1495.2z M1495.2,2236.8v131.3h-16v-131.3H1495.2z"/>
</g>
<g id="art">
	<path class="st1" d="M482.3,2410.3h24.8l51.3,133.2h-25l-12.5-35.2h-53.2l-12.5,35.2h-24.1L482.3,2410.3z M474.1,2490.5h40.7
		l-20-57.3h-0.6L474.1,2490.5z"/>
	<path class="st1" d="M571.1,2410.3h63.6c14.7,0,25.7,3.2,33,9.5c7.3,6.3,11,15.2,11,26.5c0,6.3-0.9,11.6-2.8,15.8
		c-1.9,4.2-4,7.5-6.5,10.1c-2.5,2.5-4.9,4.4-7.4,5.5c-2.4,1.1-4.2,1.9-5.3,2.2v0.4c2,0.2,4.1,0.9,6.4,1.9c2.3,1,4.4,2.6,6.4,4.8
		c2,2.2,3.6,5,4.9,8.5c1.3,3.5,2,7.8,2,13.1c0,7.8,0.6,15,1.8,21.4c1.2,6.4,3,11,5.5,13.7h-25c-1.7-2.9-2.8-6-3.1-9.5
		c-0.3-3.5-0.5-6.8-0.5-10.1c0-6.1-0.4-11.3-1.1-15.8s-2.1-8.1-4.1-11c-2-2.9-4.7-5.1-8.1-6.4c-3.4-1.4-7.8-2.1-13.1-2.1h-34.3v54.8
		h-23.3V2410.3z M594.4,2470.9h38.2c7.5,0,13.1-1.8,17-5.3c3.9-3.5,5.8-8.9,5.8-15.9c0-4.2-0.6-7.7-1.9-10.4c-1.2-2.7-3-4.8-5.1-6.2
		c-2.2-1.5-4.7-2.5-7.5-3c-2.8-0.5-5.7-0.7-8.7-0.7h-37.9V2470.9z"/>
	<path class="st1" d="M686.3,2410.3h107.8v20.1h-42.3v113h-23.3v-113h-42.1V2410.3z"/>
</g>
<path id="L" class="st2" d="M530.8,1849.4v-25.5c50.6-5.4,83.4-14.4,98.4-27.1c11.7-9.9,21.4-36.5,21.4-65.3V468.2H410.4v1130.1
	v489.4h480.3h601.7v-238.4H650.6H530.8z"/>
<path id="canvas" class="st1" d="M650.6,285.7v182.5h240.1h127.4v25.5c-50.6,2.7-84.5,11-101.8,24.9c-15.8,12.7-25.7,40.6-25.7,78.4
	V1795h371.4c95.6-2.4,162.1-12.3,199-29.6c43-20.2,84.7-71.6,125.1-154.5h35l-67.3,238.4h156.4V285.7H650.6z"/>
</svg>
